<svg width="800" height="400" viewBox="0 0 800 400" xmlns="http://www.w3.org/2000/svg"><mask id="satori_om-id"><rect x="0" y="0" width="800" height="400" fill="#fff"/></mask><rect x="0" y="0" width="800" height="400" fill="white"/><mask id="satori_om-id-0"><rect x="42" y="42" width="348" height="24" fill="#fff"/></mask><mask id="satori_om-id-0-0"><rect x="42" y="42" width="24" height="24" fill="#fff"/></mask><rect x="42" y="42" width="24" height="24" fill="black"/><mask id="satori_om-id-0-1"><rect x="74" y="42" width="316" height="24" fill="#fff"/></mask><path fill="black" d="M80.1 65.0L80.1 65.0Q78.7 65.0 77.6 64.6Q76.6 64.2 75.9 63.5Q75.3 62.9 75.1 62.0L75.1 62.0L77.9 61.6Q78.1 61.9 78.3 62.2Q78.6 62.5 79.1 62.7Q79.5 62.9 80.2 62.9L80.2 62.9Q81.2 62.9 81.8 62.4Q82.5 61.9 82.5 60.8L82.5 60.8L82.5 58.8L82.3 58.8Q82.1 59.2 81.7 59.6Q81.3 60.1 80.7 60.3Q80.1 60.6 79.2 60.6L79.2 60.6Q78.0 60.6 77.0 60.0Q76.0 59.4 75.4 58.2Q74.8 57.1 74.8 55.2L74.8 55.2Q74.8 53.4 75.4 52.1Q76.0 50.9 77.0 50.3Q78.0 49.7 79.2 49.7L79.2 49.7Q80.1 49.7 80.8 50.0Q81.4 50.3 81.8 50.7Q82.1 51.2 82.3 51.6L82.3 51.6L82.5 51.6L82.5 49.8L85.5 49.8L85.5 60.8Q85.5 62.2 84.8 63.2Q84.1 64.1 82.9 64.6Q81.7 65.0 80.1 65.0ZM80.2 58.3L80.2 58.3Q80.9 58.3 81.4 57.9Q81.9 57.6 82.2 56.9Q82.5 56.2 82.5 55.2L82.5 55.2Q82.5 54.3 82.2 53.6Q81.9 52.9 81.4 52.5Q80.9 52.1 80.2 52.1L80.2 52.1Q79.4 52.1 78.9 52.5Q78.4 52.9 78.2 53.6Q77.9 54.3 77.9 55.2L77.9 55.2Q77.9 56.2 78.2 56.9Q78.4 57.5 78.9 57.9Q79.4 58.3 80.2 58.3ZM90.6 60.7L87.6 60.7L87.6 49.8L90.6 49.8L90.6 60.7ZM89.1 48.4L89.1 48.4Q88.4 48.4 87.9 48.0Q87.4 47.5 87.4 46.9L87.4 46.9Q87.4 46.2 87.9 45.8Q88.4 45.3 89.1 45.3L89.1 45.3Q89.7 45.3 90.2 45.8Q90.7 46.2 90.7 46.9L90.7 46.9Q90.7 47.5 90.2 48.0Q89.7 48.4 89.1 48.4ZM91.9 49.8L98.5 49.8L98.5 52.1L91.9 52.1L91.9 49.8ZM93.4 57.8L93.4 47.2L96.4 47.2L96.4 57.4Q96.4 57.8 96.5 58.0Q96.7 58.2 96.9 58.3Q97.1 58.4 97.4 58.4L97.4 58.4Q97.7 58.4 97.9 58.4Q98.1 58.4 98.2 58.3L98.2 58.3L98.7 60.6Q98.4 60.7 98.0 60.8Q97.6 60.8 97.0 60.9L97.0 60.9Q95.9 60.9 95.1 60.6Q94.3 60.2 93.8 59.5Q93.4 58.8 93.4 57.8L93.4 57.8ZM103.4 54.4L103.4 54.4L103.4 60.7L100.3 60.7L100.3 46.2L103.3 46.2L103.3 51.7L103.4 51.7Q103.8 50.8 104.6 50.2Q105.4 49.7 106.7 49.7L106.7 49.7Q107.8 49.7 108.7 50.2Q109.5 50.7 110.0 51.6Q110.5 52.5 110.4 53.8L110.4 53.8L110.4 60.7L107.4 60.7L107.4 54.3Q107.4 53.3 106.9 52.7Q106.4 52.2 105.5 52.2L105.5 52.2Q104.9 52.2 104.4 52.4Q103.9 52.7 103.6 53.2Q103.4 53.7 103.4 54.4ZM119.5 56.1L119.5 56.1L119.5 49.8L122.5 49.8L122.5 60.7L119.6 60.7L119.6 58.7L119.5 58.7Q119.1 59.7 118.3 60.3Q117.4 60.9 116.2 60.9L116.2 60.9Q115.1 60.9 114.3 60.4Q113.5 59.9 113.0 59.0Q112.5 58.0 112.5 56.8L112.5 56.8L112.5 49.8L115.5 49.8L115.5 56.2Q115.5 57.2 116.1 57.7Q116.6 58.3 117.4 58.3L117.4 58.3Q118.0 58.3 118.5 58.1Q118.9 57.8 119.2 57.3Q119.5 56.8 119.5 56.1ZM127.7 60.7L124.7 60.7L124.7 46.2L127.7 46.2L127.7 51.6L127.8 51.6Q128.0 51.2 128.4 50.7Q128.8 50.3 129.4 50.0Q130.0 49.7 130.9 49.7L130.9 49.7Q132.1 49.7 133.1 50.3Q134.1 50.9 134.7 52.2Q135.3 53.4 135.3 55.3L135.3 55.3Q135.3 57.1 134.7 58.4Q134.2 59.6 133.1 60.3Q132.1 60.9 130.9 60.9L130.9 60.9Q130.0 60.9 129.4 60.6Q128.8 60.3 128.4 59.9Q128.0 59.4 127.8 59.0L127.8 59.0L127.7 59.0L127.7 60.7ZM127.6 55.3L127.6 55.3Q127.6 56.2 127.9 57.0Q128.2 57.7 128.7 58.1Q129.2 58.5 129.9 58.5L129.9 58.5Q130.7 58.5 131.2 58.1Q131.7 57.7 132.0 56.9Q132.2 56.2 132.2 55.3L132.2 55.3Q132.2 54.3 132.0 53.6Q131.7 52.9 131.2 52.5Q130.7 52.1 129.9 52.1L129.9 52.1Q129.2 52.1 128.7 52.5Q128.2 52.9 127.9 53.6Q127.6 54.3 127.6 55.3ZM138.8 60.9L138.8 60.9Q138.1 60.9 137.6 60.4Q137.1 59.9 137.1 59.2L137.1 59.2Q137.1 58.5 137.6 58.0Q138.1 57.5 138.8 57.5L138.8 57.5Q139.5 57.5 140.0 58.0Q140.5 58.5 140.5 59.2L140.5 59.2Q140.5 59.7 140.3 60.1Q140.0 60.4 139.6 60.7Q139.2 60.9 138.8 60.9ZM147.6 60.9L147.6 60.9Q145.9 60.9 144.7 60.2Q143.5 59.5 142.9 58.2Q142.2 57.0 142.2 55.3L142.2 55.3Q142.2 53.6 142.9 52.4Q143.5 51.1 144.7 50.4Q145.9 49.7 147.6 49.7L147.6 49.7Q149.0 49.7 150.1 50.2Q151.1 50.7 151.8 51.6Q152.4 52.6 152.4 53.8L152.4 53.8L149.6 53.8Q149.5 53.0 149.0 52.5Q148.4 52.0 147.6 52.0L147.6 52.0Q146.9 52.0 146.4 52.4Q145.9 52.8 145.6 53.5Q145.3 54.2 145.3 55.3L145.3 55.3Q145.3 56.3 145.6 57.0Q145.9 57.8 146.4 58.2Q146.9 58.5 147.6 58.5L147.6 58.5Q148.1 58.5 148.5 58.3Q149.0 58.1 149.2 57.7Q149.5 57.3 149.6 56.7L149.6 56.7L152.4 56.7Q152.4 58.0 151.8 58.9Q151.2 59.9 150.1 60.4Q149.0 60.9 147.6 60.9ZM159.0 60.9L159.0 60.9Q157.3 60.9 156.1 60.2Q154.9 59.5 154.3 58.3Q153.6 57.0 153.6 55.3L153.6 55.3Q153.6 53.6 154.3 52.4Q154.9 51.1 156.1 50.4Q157.3 49.7 159.0 49.7L159.0 49.7Q160.7 49.7 161.9 50.4Q163.1 51.1 163.7 52.4Q164.4 53.6 164.4 55.3L164.4 55.3Q164.4 57.0 163.7 58.3Q163.1 59.5 161.9 60.2Q160.7 60.9 159.0 60.9ZM159.0 58.6L159.0 58.6Q159.8 58.6 160.3 58.2Q160.8 57.7 161.0 57.0Q161.3 56.2 161.3 55.3L161.3 55.3Q161.3 54.3 161.0 53.6Q160.8 52.8 160.3 52.4Q159.8 52.0 159.0 52.0L159.0 52.0Q158.3 52.0 157.7 52.4Q157.2 52.8 157.0 53.6Q156.7 54.3 156.7 55.3L156.7 55.3Q156.7 56.2 157.0 57.0Q157.2 57.7 157.7 58.2Q158.3 58.6 159.0 58.6ZM169.1 60.7L166.0 60.7L166.0 49.8L168.9 49.8L168.9 51.7L169.0 51.7Q169.4 50.8 170.2 50.2Q171.0 49.7 172.1 49.7L172.1 49.7Q173.2 49.7 174.0 50.2Q174.8 50.8 175.0 51.7L175.0 51.7L175.2 51.7Q175.5 50.8 176.4 50.2Q177.2 49.7 178.4 49.7L178.4 49.7Q180.0 49.7 180.9 50.6Q181.9 51.6 181.9 53.4L181.9 53.4L181.9 60.7L178.9 60.7L178.9 54.0Q178.9 53.1 178.4 52.6Q177.9 52.2 177.2 52.2L177.2 52.2Q176.3 52.2 175.9 52.7Q175.4 53.2 175.4 54.1L175.4 54.1L175.4 60.7L172.5 60.7L172.5 53.9Q172.5 53.1 172.0 52.6Q171.6 52.2 170.8 52.2L170.8 52.2Q170.3 52.2 169.9 52.4Q169.5 52.7 169.3 53.1Q169.1 53.6 169.1 54.2L169.1 54.2L169.1 60.7ZM187.7 45.5L190.3 45.5L185.6 62.9L183.0 62.9L187.7 45.5ZM194.5 60.9L194.5 60.9Q193.5 60.9 192.7 60.6Q191.9 60.2 191.4 59.5Q190.9 58.8 190.9 57.7L190.9 57.7Q190.9 56.8 191.2 56.1Q191.6 55.5 192.2 55.2Q192.7 54.8 193.5 54.6Q194.2 54.4 195.0 54.3L195.0 54.3Q196.0 54.2 196.5 54.1Q197.1 54.0 197.4 53.9Q197.7 53.7 197.7 53.3L197.7 53.3L197.7 53.3Q197.7 52.6 197.2 52.2Q196.8 51.9 196.0 51.9L196.0 51.9Q195.2 51.9 194.7 52.2Q194.3 52.6 194.1 53.1L194.1 53.1L191.3 52.9Q191.5 51.9 192.1 51.2Q192.8 50.5 193.8 50.1Q194.7 49.7 196.0 49.7L196.0 49.7Q197.0 49.7 197.8 49.9Q198.6 50.1 199.3 50.5Q199.9 51.0 200.3 51.7Q200.7 52.4 200.7 53.4L200.7 53.4L200.7 60.7L197.8 60.7L197.8 59.2L197.7 59.2Q197.5 59.7 197.0 60.1Q196.6 60.5 196.0 60.7Q195.3 60.9 194.5 60.9ZM195.4 58.8L195.4 58.8Q196.1 58.8 196.6 58.6Q197.1 58.3 197.4 57.9Q197.7 57.4 197.7 56.8L197.7 56.8L197.7 55.7Q197.5 55.8 197.3 55.8Q197.0 55.9 196.7 56.0Q196.4 56.0 196.1 56.1Q195.8 56.1 195.6 56.2L195.6 56.2Q195.0 56.2 194.6 56.4Q194.2 56.6 194.0 56.9Q193.8 57.1 193.8 57.6L193.8 57.6Q193.8 58.2 194.3 58.5Q194.7 58.8 195.4 58.8ZM208.1 60.7L204.9 60.7L201.9 49.8L205.0 49.8L206.6 57.1L206.7 57.1L208.5 49.8L211.5 49.8L213.3 57.1L213.4 57.1L215.1 49.8L218.1 49.8L215.1 60.7L211.9 60.7L210.1 53.9L209.9 53.9L208.1 60.7ZM224.1 60.9L224.1 60.9Q222.4 60.9 221.2 60.2Q220.0 59.6 219.3 58.3Q218.7 57.0 218.7 55.3L218.7 55.3Q218.7 53.6 219.3 52.4Q220.0 51.1 221.2 50.4Q222.4 49.7 224.0 49.7L224.0 49.7Q225.1 49.7 226.0 50.0Q226.9 50.4 227.6 51.0Q228.3 51.7 228.7 52.8Q229.1 53.8 229.1 55.2L229.1 55.2L229.1 56.0L219.9 56.0L219.9 54.2L226.3 54.2Q226.3 53.5 226.0 53.0Q225.7 52.5 225.2 52.2Q224.7 51.9 224.0 51.9L224.0 51.9Q223.3 51.9 222.8 52.2Q222.3 52.6 222.0 53.1Q221.7 53.6 221.7 54.3L221.7 54.3L221.7 56.0Q221.7 56.9 222.0 57.4Q222.3 58.0 222.8 58.4Q223.4 58.7 224.1 58.7L224.1 58.7Q224.6 58.7 225.1 58.5Q225.5 58.4 225.8 58.1Q226.1 57.8 226.2 57.4L226.2 57.4L229.0 57.6Q228.8 58.6 228.2 59.4Q227.5 60.1 226.5 60.5Q225.4 60.9 224.1 60.9ZM239.8 52.9L239.8 52.9L237.1 53.1Q237.0 52.7 236.8 52.4Q236.5 52.2 236.1 52.0Q235.8 51.8 235.2 51.8L235.2 51.8Q234.5 51.8 234.1 52.1Q233.6 52.4 233.6 52.9L233.6 52.9Q233.6 53.3 233.9 53.6Q234.2 53.8 235.0 54.0L235.0 54.0L236.9 54.4Q238.5 54.7 239.3 55.4Q240.1 56.2 240.1 57.3L240.1 57.3Q240.1 58.4 239.5 59.2Q238.8 60.0 237.7 60.5Q236.6 60.9 235.2 60.9L235.2 60.9Q233.1 60.9 231.8 60.0Q230.5 59.1 230.3 57.6L230.3 57.6L233.2 57.4Q233.4 58.1 233.9 58.4Q234.4 58.8 235.2 58.8L235.2 58.8Q236.0 58.8 236.5 58.4Q237.0 58.1 237.0 57.6L237.0 57.6Q237.0 57.2 236.7 57.0Q236.3 56.7 235.6 56.6L235.6 56.6L233.7 56.2Q232.1 55.9 231.3 55.1Q230.6 54.3 230.6 53.1L230.6 53.1Q230.6 52.0 231.1 51.3Q231.7 50.5 232.7 50.1Q233.8 49.7 235.2 49.7L235.2 49.7Q237.3 49.7 238.4 50.5Q239.6 51.4 239.8 52.9ZM246.6 60.9L246.6 60.9Q244.9 60.9 243.7 60.2Q242.5 59.5 241.9 58.3Q241.2 57.0 241.2 55.3L241.2 55.3Q241.2 53.6 241.9 52.4Q242.5 51.1 243.7 50.4Q244.9 49.7 246.6 49.7L246.6 49.7Q248.3 49.7 249.5 50.4Q250.7 51.1 251.3 52.4Q252.0 53.6 252.0 55.3L252.0 55.3Q252.0 57.0 251.3 58.3Q250.7 59.5 249.5 60.2Q248.3 60.9 246.6 60.9ZM246.6 58.6L246.6 58.6Q247.4 58.6 247.9 58.2Q248.4 57.7 248.6 57.0Q248.9 56.2 248.9 55.3L248.9 55.3Q248.9 54.3 248.6 53.6Q248.4 52.8 247.9 52.4Q247.4 52.0 246.6 52.0L246.6 52.0Q245.9 52.0 245.3 52.4Q244.8 52.8 244.6 53.6Q244.3 54.3 244.3 55.3L244.3 55.3Q244.3 56.2 244.6 57.0Q244.8 57.7 245.3 58.2Q245.9 58.6 246.6 58.6ZM256.6 60.7L253.6 60.7L253.6 49.8L256.5 49.8L256.5 51.7L256.6 51.7Q257.0 50.8 257.8 50.2Q258.6 49.7 259.7 49.7L259.7 49.7Q260.8 49.7 261.6 50.2Q262.4 50.8 262.6 51.7L262.6 51.7L262.8 51.7Q263.1 50.8 264.0 50.2Q264.8 49.7 266.0 49.7L266.0 49.7Q267.6 49.7 268.5 50.6Q269.5 51.6 269.5 53.4L269.5 53.4L269.5 60.7L266.5 60.7L266.5 54.0Q266.5 53.1 266.0 52.6Q265.5 52.2 264.8 52.2L264.8 52.2Q263.9 52.2 263.5 52.7Q263.0 53.2 263.0 54.1L263.0 54.1L263.0 60.7L260.1 60.7L260.1 53.9Q260.1 53.1 259.6 52.6Q259.2 52.2 258.4 52.2L258.4 52.2Q257.9 52.2 257.5 52.4Q257.1 52.7 256.9 53.1Q256.6 53.6 256.6 54.2L256.6 54.2L256.6 60.7ZM276.5 60.9L276.5 60.9Q274.8 60.9 273.6 60.2Q272.4 59.6 271.8 58.3Q271.1 57.0 271.1 55.3L271.1 55.3Q271.1 53.6 271.8 52.4Q272.4 51.1 273.6 50.4Q274.8 49.7 276.4 49.7L276.4 49.7Q277.5 49.7 278.4 50.0Q279.3 50.4 280.0 51.0Q280.7 51.7 281.1 52.8Q281.5 53.8 281.5 55.2L281.5 55.2L281.5 56.0L272.3 56.0L272.3 54.2L278.7 54.2Q278.7 53.5 278.4 53.0Q278.1 52.5 277.6 52.2Q277.1 51.9 276.4 51.9L276.4 51.9Q275.8 51.9 275.2 52.2Q274.7 52.6 274.4 53.1Q274.1 53.6 274.1 54.3L274.1 54.3L274.1 56.0Q274.1 56.9 274.4 57.4Q274.7 58.0 275.3 58.4Q275.8 58.7 276.6 58.7L276.6 58.7Q277.1 58.7 277.5 58.5Q277.9 58.4 278.2 58.1Q278.5 57.8 278.7 57.4L278.7 57.4L281.5 57.6Q281.2 58.6 280.6 59.4Q279.9 60.1 278.9 60.5Q277.9 60.9 276.5 60.9ZM283.3 53.5L290.0 53.5L290.0 55.9L283.3 55.9L283.3 53.5ZM295.3 60.9L295.3 60.9Q294.3 60.9 293.5 60.6Q292.7 60.2 292.2 59.5Q291.7 58.8 291.7 57.7L291.7 57.7Q291.7 56.8 292.1 56.1Q292.4 55.5 293.0 55.2Q293.5 54.8 294.3 54.6Q295.0 54.4 295.8 54.3L295.8 54.3Q296.8 54.2 297.4 54.1Q297.9 54.0 298.2 53.9Q298.5 53.7 298.5 53.3L298.5 53.3L298.5 53.3Q298.5 52.6 298.0 52.2Q297.6 51.9 296.8 51.9L296.8 51.9Q296.0 51.9 295.5 52.2Q295.1 52.6 294.9 53.1L294.9 53.1L292.1 52.9Q292.3 51.9 292.9 51.2Q293.6 50.5 294.6 50.1Q295.5 49.7 296.9 49.7L296.9 49.7Q297.8 49.7 298.6 49.9Q299.4 50.1 300.1 50.5Q300.7 51.0 301.1 51.7Q301.5 52.4 301.5 53.4L301.5 53.4L301.5 60.7L298.6 60.7L298.6 59.2L298.5 59.2Q298.3 59.7 297.8 60.1Q297.4 60.5 296.8 60.7Q296.2 60.9 295.3 60.9ZM296.2 58.8L296.2 58.8Q296.9 58.8 297.4 58.6Q297.9 58.3 298.2 57.9Q298.5 57.4 298.5 56.8L298.5 56.8L298.5 55.7Q298.3 55.8 298.1 55.8Q297.8 55.9 297.5 56.0Q297.2 56.0 296.9 56.1Q296.6 56.1 296.4 56.2L296.4 56.2Q295.8 56.2 295.4 56.4Q295.1 56.6 294.8 56.9Q294.6 57.1 294.6 57.6L294.6 57.6Q294.6 58.2 295.1 58.5Q295.5 58.8 296.2 58.8ZM312.6 52.9L312.6 52.9L309.8 53.1Q309.8 52.7 309.5 52.4Q309.3 52.2 308.9 52.0Q308.5 51.8 308.0 51.8L308.0 51.8Q307.3 51.8 306.8 52.1Q306.3 52.4 306.3 52.9L306.3 52.9Q306.3 53.3 306.6 53.6Q307.0 53.8 307.7 54.0L307.7 54.0L309.7 54.4Q311.3 54.7 312.1 55.4Q312.8 56.2 312.8 57.3L312.8 57.3Q312.8 58.4 312.2 59.2Q311.6 60.0 310.5 60.5Q309.4 60.9 308.0 60.9L308.0 60.9Q305.8 60.9 304.5 60.0Q303.3 59.1 303.0 57.6L303.0 57.6L306.0 57.4Q306.1 58.1 306.7 58.4Q307.2 58.8 308.0 58.8L308.0 58.8Q308.8 58.8 309.3 58.4Q309.8 58.1 309.8 57.6L309.8 57.6Q309.8 57.2 309.4 57.0Q309.1 56.7 308.4 56.6L308.4 56.6L306.5 56.2Q304.9 55.9 304.1 55.1Q303.3 54.3 303.3 53.1L303.3 53.1Q303.3 52.0 303.9 51.3Q304.5 50.5 305.5 50.1Q306.5 49.7 307.9 49.7L307.9 49.7Q310.0 49.7 311.2 50.5Q312.4 51.4 312.6 52.9ZM323.5 52.9L323.5 52.9L320.7 53.1Q320.7 52.7 320.4 52.4Q320.2 52.2 319.8 52.0Q319.4 51.8 318.9 51.8L318.9 51.8Q318.2 51.8 317.7 52.1Q317.2 52.4 317.2 52.9L317.2 52.9Q317.2 53.3 317.6 53.6Q317.9 53.8 318.6 54.0L318.6 54.0L320.6 54.4Q322.2 54.7 323.0 55.4Q323.8 56.2 323.8 57.3L323.8 57.3Q323.8 58.4 323.1 59.2Q322.5 60.0 321.4 60.5Q320.3 60.9 318.9 60.9L318.9 60.9Q316.7 60.9 315.5 60.0Q314.2 59.1 313.9 57.6L313.9 57.6L316.9 57.4Q317.1 58.1 317.6 58.4Q318.1 58.8 318.9 58.8L318.9 58.8Q319.7 58.8 320.2 58.4Q320.7 58.1 320.7 57.6L320.7 57.6Q320.7 57.2 320.3 57.0Q320.0 56.7 319.3 56.6L319.3 56.6L317.4 56.2Q315.8 55.9 315.0 55.1Q314.2 54.3 314.2 53.1L314.2 53.1Q314.2 52.0 314.8 51.3Q315.4 50.5 316.4 50.1Q317.5 49.7 318.9 49.7L318.9 49.7Q320.9 49.7 322.1 50.5Q323.3 51.4 323.5 52.9ZM328.4 60.7L325.3 60.7L325.3 49.8L328.4 49.8L328.4 60.7ZM326.9 48.4L326.9 48.4Q326.2 48.4 325.7 48.0Q325.2 47.5 325.2 46.9L325.2 46.9Q325.2 46.2 325.7 45.8Q326.2 45.3 326.9 45.3L326.9 45.3Q327.5 45.3 328.0 45.8Q328.5 46.2 328.5 46.9L328.5 46.9Q328.5 47.5 328.0 48.0Q327.5 48.4 326.9 48.4ZM339.5 52.9L339.5 52.9L336.8 53.1Q336.7 52.7 336.5 52.4Q336.2 52.2 335.9 52.0Q335.5 51.8 334.9 51.8L334.9 51.8Q334.2 51.8 333.8 52.1Q333.3 52.4 333.3 52.9L333.3 52.9Q333.3 53.3 333.6 53.6Q333.9 53.8 334.7 54.0L334.7 54.0L336.6 54.4Q338.2 54.7 339.0 55.4Q339.8 56.2 339.8 57.3L339.8 57.3Q339.8 58.4 339.2 59.2Q338.5 60.0 337.4 60.5Q336.4 60.9 334.9 60.9L334.9 60.9Q332.8 60.9 331.5 60.0Q330.2 59.1 330.0 57.6L330.0 57.6L333.0 57.4Q333.1 58.1 333.6 58.4Q334.1 58.8 334.9 58.8L334.9 58.8Q335.7 58.8 336.2 58.4Q336.7 58.1 336.7 57.6L336.7 57.6Q336.7 57.2 336.4 57.0Q336.0 56.7 335.3 56.6L335.3 56.6L333.4 56.2Q331.8 55.9 331.1 55.1Q330.3 54.3 330.3 53.1L330.3 53.1Q330.3 52.0 330.8 51.3Q331.4 50.5 332.5 50.1Q333.5 49.7 334.9 49.7L334.9 49.7Q337.0 49.7 338.2 50.5Q339.3 51.4 339.5 52.9ZM340.6 49.8L347.2 49.8L347.2 52.1L340.6 52.1L340.6 49.8ZM342.1 57.8L342.1 47.2L345.1 47.2L345.1 57.4Q345.1 57.8 345.3 58.0Q345.4 58.2 345.6 58.3Q345.9 58.4 346.2 58.4L346.2 58.4Q346.4 58.4 346.6 58.4Q346.8 58.4 346.9 58.3L346.9 58.3L347.4 60.6Q347.2 60.7 346.7 60.8Q346.3 60.8 345.7 60.9L345.7 60.9Q344.7 60.9 343.8 60.6Q343.0 60.2 342.6 59.5Q342.1 58.8 342.1 57.8L342.1 57.8ZM351.9 60.9L351.9 60.9Q350.9 60.9 350.1 60.6Q349.3 60.2 348.8 59.5Q348.3 58.8 348.3 57.7L348.3 57.7Q348.3 56.8 348.7 56.1Q349.0 55.5 349.6 55.2Q350.1 54.8 350.9 54.6Q351.6 54.4 352.4 54.3L352.4 54.3Q353.4 54.2 354.0 54.1Q354.5 54.0 354.8 53.9Q355.1 53.7 355.1 53.3L355.1 53.3L355.1 53.3Q355.1 52.6 354.6 52.2Q354.2 51.9 353.4 51.9L353.4 51.9Q352.6 51.9 352.1 52.2Q351.7 52.6 351.5 53.1L351.5 53.1L348.7 52.9Q348.9 51.9 349.5 51.2Q350.2 50.5 351.2 50.1Q352.2 49.7 353.5 49.7L353.5 49.7Q354.4 49.7 355.2 49.9Q356.0 50.1 356.7 50.5Q357.3 51.0 357.7 51.7Q358.1 52.4 358.1 53.4L358.1 53.4L358.1 60.7L355.2 60.7L355.2 59.2L355.1 59.2Q354.9 59.7 354.4 60.1Q354.0 60.5 353.4 60.7Q352.8 60.9 351.9 60.9ZM352.8 58.8L352.8 58.8Q353.5 58.8 354.0 58.6Q354.5 58.3 354.8 57.9Q355.1 57.4 355.1 56.8L355.1 56.8L355.1 55.7Q354.9 55.8 354.7 55.8Q354.5 55.9 354.1 56.0Q353.8 56.0 353.5 56.1Q353.2 56.1 353.0 56.2L353.0 56.2Q352.4 56.2 352.1 56.4Q351.7 56.6 351.4 56.9Q351.2 57.1 351.2 57.6L351.2 57.6Q351.2 58.2 351.7 58.5Q352.1 58.8 352.8 58.8ZM363.1 54.4L363.1 54.4L363.1 60.7L360.1 60.7L360.1 49.8L363.0 49.8L363.0 51.7L363.1 51.7Q363.5 50.8 364.3 50.2Q365.2 49.7 366.4 49.7L366.4 49.7Q367.5 49.7 368.4 50.2Q369.2 50.7 369.7 51.6Q370.2 52.5 370.2 53.8L370.2 53.8L370.2 60.7L367.2 60.7L367.2 54.3Q367.2 53.3 366.6 52.7Q366.1 52.2 365.2 52.2L365.2 52.2Q364.6 52.2 364.1 52.4Q363.7 52.7 363.4 53.2Q363.2 53.7 363.1 54.4ZM371.5 49.8L378.0 49.8L378.0 52.1L371.5 52.1L371.5 49.8ZM373.0 57.8L373.0 47.2L376.0 47.2L376.0 57.4Q376.0 57.8 376.1 58.0Q376.2 58.2 376.5 58.3Q376.7 58.4 377.0 58.4L377.0 58.4Q377.2 58.4 377.4 58.4Q377.6 58.4 377.8 58.3L377.8 58.3L378.2 60.6Q378.0 60.7 377.6 60.8Q377.2 60.8 376.6 60.9L376.6 60.9Q375.5 60.9 374.7 60.6Q373.9 60.2 373.4 59.5Q373.0 58.8 373.0 57.8L373.0 57.8ZM388.6 52.9L388.6 52.9L385.8 53.1Q385.8 52.7 385.5 52.4Q385.3 52.2 384.9 52.0Q384.5 51.8 384.0 51.8L384.0 51.8Q383.3 51.8 382.8 52.1Q382.3 52.4 382.3 52.9L382.3 52.9Q382.3 53.3 382.7 53.6Q383.0 53.8 383.7 54.0L383.7 54.0L385.7 54.4Q387.3 54.7 388.1 55.4Q388.9 56.2 388.9 57.3L388.9 57.3Q388.9 58.4 388.2 59.2Q387.6 60.0 386.5 60.5Q385.4 60.9 384.0 60.9L384.0 60.9Q381.8 60.9 380.6 60.0Q379.3 59.1 379.1 57.6L379.1 57.6L382.0 57.4Q382.2 58.1 382.7 58.4Q383.2 58.8 384.0 58.8L384.0 58.8Q384.8 58.8 385.3 58.4Q385.8 58.1 385.8 57.6L385.8 57.6Q385.8 57.2 385.4 57.0Q385.1 56.7 384.4 56.6L384.4 56.6L382.5 56.2Q380.9 55.9 380.1 55.1Q379.3 54.3 379.3 53.1L379.3 53.1Q379.3 52.0 379.9 51.3Q380.5 50.5 381.5 50.1Q382.6 49.7 384.0 49.7L384.0 49.7Q386.0 49.7 387.2 50.5Q388.4 51.4 388.6 52.9Z "/><mask id="satori_om-id-1"><rect x="125" y="124" width="550" height="152" fill="#fff"/></mask><rect x="125" y="124" width="550" height="152" fill="black"/><path fill="white" d="M267.0 166.6L267.0 166.6L260.8 166.6Q260.6 165.4 260.1 164.4Q259.6 163.5 258.8 162.8Q257.9 162.1 256.9 161.8Q255.8 161.4 254.5 161.4L254.5 161.4Q252.3 161.4 250.6 162.5Q248.9 163.7 248.0 165.8Q247.1 167.9 247.1 170.9L247.1 170.9Q247.1 174.0 248.0 176.2Q249.0 178.3 250.6 179.4Q252.3 180.4 254.5 180.4L254.5 180.4Q255.7 180.4 256.8 180.1Q257.9 179.8 258.7 179.1Q259.5 178.5 260.1 177.6Q260.6 176.7 260.8 175.5L260.8 175.5L267.0 175.6Q266.8 177.6 265.8 179.4Q264.9 181.3 263.3 182.7Q261.7 184.2 259.4 185.0Q257.2 185.9 254.4 185.9L254.4 185.9Q250.5 185.9 247.5 184.1Q244.4 182.3 242.6 179.0Q240.9 175.7 240.9 170.9L240.9 170.9Q240.9 166.2 242.6 162.8Q244.4 159.5 247.5 157.7Q250.6 156.0 254.4 156.0L254.4 156.0Q256.9 156.0 259.1 156.7Q261.3 157.4 262.9 158.8Q264.6 160.1 265.7 162.1Q266.7 164.0 267.0 166.6ZM285.0 176.2L285.0 176.2L285.0 163.7L291.1 163.7L291.1 185.5L285.3 185.5L285.3 181.5L285.0 181.5Q284.3 183.4 282.6 184.6Q280.9 185.8 278.4 185.8L278.4 185.8Q276.2 185.8 274.6 184.8Q272.9 183.8 272.0 181.9Q271.0 180.1 271.0 177.5L271.0 177.5L271.0 163.7L277.1 163.7L277.1 176.5Q277.1 178.4 278.1 179.5Q279.1 180.6 280.8 180.6L280.8 180.6Q281.9 180.6 282.9 180.1Q283.8 179.6 284.4 178.6Q285.0 177.6 285.0 176.2ZM301.6 185.5L295.6 185.5L295.6 163.7L301.4 163.7L301.4 167.5L301.7 167.5Q302.3 165.4 303.7 164.4Q305.1 163.3 306.9 163.3L306.9 163.3Q307.4 163.3 307.9 163.4Q308.4 163.5 308.8 163.6L308.8 163.6L308.8 168.9Q308.4 168.8 307.6 168.7Q306.9 168.6 306.3 168.6L306.3 168.6Q304.9 168.6 303.9 169.2Q302.8 169.7 302.2 170.8Q301.6 171.8 301.6 173.1L301.6 173.1L301.6 185.5ZM317.2 185.9L317.2 185.9Q315.1 185.9 313.5 185.2Q311.9 184.4 310.9 183.0Q310.0 181.5 310.0 179.4L310.0 179.4Q310.0 177.6 310.6 176.3Q311.3 175.1 312.5 174.3Q313.6 173.6 315.1 173.2Q316.5 172.8 318.2 172.7L318.2 172.7Q320.1 172.5 321.2 172.3Q322.4 172.1 322.9 171.8Q323.4 171.4 323.4 170.7L323.4 170.7L323.4 170.6Q323.4 169.3 322.6 168.5Q321.8 167.8 320.2 167.8L320.2 167.8Q318.6 167.8 317.6 168.5Q316.6 169.2 316.3 170.3L316.3 170.3L310.7 169.8Q311.2 167.9 312.4 166.4Q313.7 164.9 315.6 164.2Q317.6 163.4 320.2 163.4L320.2 163.4Q322.1 163.4 323.7 163.8Q325.4 164.2 326.7 165.1Q328.0 166.0 328.7 167.4Q329.5 168.8 329.5 170.8L329.5 170.8L329.5 185.5L323.8 185.5L323.8 182.4L323.6 182.4Q323.1 183.5 322.2 184.2Q321.3 185.0 320.1 185.5Q318.8 185.9 317.2 185.9ZM318.9 181.7L318.9 181.7Q320.3 181.7 321.3 181.2Q322.3 180.6 322.9 179.7Q323.5 178.8 323.5 177.7L323.5 177.7L323.5 175.4Q323.2 175.5 322.7 175.7Q322.2 175.8 321.6 176.0Q321.0 176.1 320.4 176.2Q319.8 176.3 319.3 176.3L319.3 176.3Q318.2 176.5 317.4 176.8Q316.6 177.2 316.2 177.8Q315.7 178.3 315.7 179.2L315.7 179.2Q315.7 180.4 316.7 181.1Q317.6 181.7 318.9 181.7ZM332.3 163.7L345.5 163.7L345.5 168.2L332.3 168.2L332.3 163.7ZM335.3 179.6L335.3 158.4L341.4 158.4L341.4 178.8Q341.4 179.6 341.6 180.1Q341.9 180.5 342.4 180.7Q342.8 180.9 343.4 180.9L343.4 180.9Q343.9 180.9 344.3 180.8Q344.7 180.7 344.9 180.7L344.9 180.7L345.9 185.2Q345.4 185.3 344.6 185.5Q343.8 185.7 342.6 185.8L342.6 185.8Q340.4 185.9 338.8 185.2Q337.1 184.5 336.2 183.1Q335.3 181.7 335.3 179.6L335.3 179.6ZM358.8 185.9L358.8 185.9Q355.4 185.9 353.0 184.5Q350.6 183.2 349.3 180.6Q348.0 178.1 348.0 174.7L348.0 174.7Q348.0 171.3 349.3 168.8Q350.6 166.2 353.0 164.8Q355.4 163.4 358.6 163.4L358.6 163.4Q360.7 163.4 362.6 164.1Q364.5 164.7 365.9 166.1Q367.3 167.5 368.0 169.6Q368.8 171.7 368.8 174.5L368.8 174.5L368.8 176.1L350.4 176.1L350.4 172.4L363.1 172.4Q363.1 171.1 362.6 170.0Q362.0 169.0 361.0 168.5Q360.0 167.9 358.7 167.9L358.7 167.9Q357.3 167.9 356.2 168.5Q355.2 169.2 354.6 170.2Q354.0 171.3 354.0 172.6L354.0 172.6L354.0 176.1Q354.0 177.7 354.6 178.9Q355.2 180.1 356.3 180.7Q357.4 181.4 358.9 181.4L358.9 181.4Q359.9 181.4 360.8 181.1Q361.6 180.8 362.2 180.2Q362.8 179.7 363.1 178.9L363.1 178.9L368.7 179.2Q368.3 181.2 367.0 182.7Q365.6 184.2 363.6 185.1Q361.5 185.9 358.8 185.9ZM380.5 185.8L380.5 185.8Q378.0 185.8 376.0 184.5Q374.0 183.3 372.8 180.8Q371.6 178.2 371.6 174.6L371.6 174.6Q371.6 170.8 372.9 168.4Q374.1 165.9 376.1 164.6Q378.1 163.4 380.5 163.4L380.5 163.4Q382.3 163.4 383.5 164.0Q384.8 164.6 385.5 165.5Q386.3 166.4 386.7 167.3L386.7 167.3L386.9 167.3L386.9 156.4L392.9 156.4L392.9 185.5L386.9 185.5L386.9 182.0L386.7 182.0Q386.3 182.9 385.5 183.8Q384.7 184.7 383.5 185.2Q382.3 185.8 380.5 185.8ZM382.4 181.0L382.4 181.0Q383.9 181.0 384.9 180.2Q385.9 179.4 386.5 178.0Q387.0 176.5 387.0 174.6L387.0 174.6Q387.0 172.6 386.5 171.2Q385.9 169.7 384.9 169.0Q383.9 168.2 382.4 168.2L382.4 168.2Q380.9 168.2 379.9 169.0Q378.9 169.8 378.4 171.2Q377.8 172.7 377.8 174.6L377.8 174.6Q377.8 176.5 378.4 177.9Q378.9 179.4 379.9 180.2Q380.9 181.0 382.4 181.0Z M407.3 156.4L413.4 156.4L413.4 185.5L407.3 185.5L407.3 156.4ZM424.0 185.5L417.9 185.5L417.9 163.7L424.0 163.7L424.0 185.5ZM420.9 160.8L420.9 160.8Q419.6 160.8 418.6 159.9Q417.7 159.0 417.7 157.8L417.7 157.8Q417.7 156.5 418.6 155.6Q419.6 154.7 420.9 154.7L420.9 154.7Q422.3 154.7 423.3 155.6Q424.2 156.5 424.2 157.8L424.2 157.8Q424.2 159.0 423.3 159.9Q422.3 160.8 420.9 160.8ZM446.6 169.9L446.6 169.9L441.1 170.2Q440.9 169.5 440.5 168.9Q440.0 168.4 439.2 168.0Q438.5 167.7 437.4 167.7L437.4 167.7Q436.0 167.7 435.1 168.3Q434.1 168.8 434.1 169.8L434.1 169.8Q434.1 170.6 434.7 171.1Q435.3 171.7 436.9 172.0L436.9 172.0L440.8 172.8Q444.0 173.5 445.6 174.9Q447.1 176.4 447.1 178.7L447.1 178.7Q447.1 180.9 445.9 182.5Q444.6 184.1 442.4 185.0Q440.2 185.9 437.4 185.9L437.4 185.9Q433.1 185.9 430.5 184.1Q427.9 182.3 427.5 179.2L427.5 179.2L433.5 178.8Q433.7 180.2 434.8 180.9Q435.8 181.5 437.4 181.5L437.4 181.5Q439.0 181.5 440.0 180.9Q441.0 180.3 441.0 179.3L441.0 179.3Q441.0 178.5 440.3 178.0Q439.6 177.4 438.2 177.2L438.2 177.2L434.4 176.4Q431.2 175.8 429.6 174.2Q428.1 172.6 428.1 170.2L428.1 170.2Q428.1 168.1 429.2 166.5Q430.4 165.0 432.4 164.2Q434.5 163.4 437.3 163.4L437.3 163.4Q441.5 163.4 443.8 165.1Q446.2 166.9 446.6 169.9ZM449.1 163.7L462.2 163.7L462.2 168.2L449.1 168.2L449.1 163.7ZM452.1 179.6L452.1 158.4L458.1 158.4L458.1 178.8Q458.1 179.6 458.4 180.1Q458.6 180.5 459.1 180.7Q459.6 180.9 460.2 180.9L460.2 180.9Q460.6 180.9 461.0 180.8Q461.4 180.7 461.7 180.7L461.7 180.7L462.6 185.2Q462.2 185.3 461.3 185.5Q460.5 185.7 459.3 185.8L459.3 185.8Q457.2 185.9 455.5 185.2Q453.9 184.5 453.0 183.1Q452.1 181.7 452.1 179.6L452.1 179.6Z M484.7 185.9L484.7 185.9Q481.3 185.9 478.9 184.5Q476.5 183.1 475.2 180.5Q473.9 178.0 473.9 174.7L473.9 174.7Q473.9 171.3 475.2 168.7Q476.5 166.2 478.9 164.8Q481.3 163.4 484.7 163.4L484.7 163.4Q488.0 163.4 490.4 164.8Q492.8 166.2 494.1 168.7Q495.4 171.3 495.4 174.7L495.4 174.7Q495.4 178.0 494.1 180.5Q492.8 183.1 490.4 184.5Q488.0 185.9 484.7 185.9ZM484.7 181.2L484.7 181.2Q486.2 181.2 487.2 180.4Q488.2 179.5 488.7 178.0Q489.2 176.5 489.2 174.6L489.2 174.6Q489.2 172.7 488.7 171.2Q488.2 169.7 487.2 168.9Q486.2 168.0 484.7 168.0L484.7 168.0Q483.2 168.0 482.1 168.9Q481.1 169.7 480.6 171.2Q480.1 172.7 480.1 174.6L480.1 174.6Q480.1 176.5 480.6 178.0Q481.1 179.5 482.1 180.4Q483.2 181.2 484.7 181.2ZM497.3 163.7L510.8 163.7L510.8 168.2L497.3 168.2L497.3 163.7ZM506.4 185.5L500.4 185.5L500.4 162.1Q500.4 159.7 501.3 158.1Q502.2 156.6 503.8 155.8Q505.5 155.0 507.5 155.0L507.5 155.0Q508.9 155.0 510.1 155.2Q511.2 155.4 511.8 155.6L511.8 155.6L510.7 160.2Q510.4 160.0 509.8 159.9Q509.3 159.8 508.8 159.8L508.8 159.8Q507.5 159.8 506.9 160.5Q506.4 161.1 506.4 162.2L506.4 162.2L506.4 185.5Z M535.5 163.0L528.2 185.5L521.6 185.5L531.7 156.4L539.6 156.4L549.6 185.5L543.0 185.5L535.7 163.0L535.5 163.0ZM527.8 178.8L527.8 174.0L543.4 174.0L543.4 178.8L527.8 178.8ZM552.8 156.4L558.9 156.4L558.9 185.5L552.8 185.5L552.8 156.4Z M308.7 242.4L308.7 242.4Q306.6 242.4 304.9 241.6Q303.3 240.9 302.4 239.5Q301.4 238.0 301.4 235.9L301.4 235.9Q301.4 234.0 302.1 232.8Q302.8 231.6 303.9 230.8Q305.1 230.1 306.5 229.7Q308.0 229.3 309.6 229.1L309.6 229.1Q311.5 228.9 312.7 228.8Q313.9 228.6 314.4 228.2Q314.9 227.9 314.9 227.2L314.9 227.2L314.9 227.1Q314.9 225.7 314.1 225.0Q313.2 224.3 311.7 224.3L311.7 224.3Q310.0 224.3 309.1 225.0Q308.1 225.7 307.8 226.8L307.8 226.8L302.2 226.3Q302.6 224.3 303.9 222.9Q305.1 221.4 307.1 220.6Q309.1 219.8 311.7 219.8L311.7 219.8Q313.5 219.8 315.2 220.3Q316.8 220.7 318.1 221.6Q319.4 222.5 320.2 223.9Q321.0 225.3 321.0 227.2L321.0 227.2L321.0 242.0L315.2 242.0L315.2 238.9L315.0 238.9Q314.5 239.9 313.6 240.7Q312.8 241.5 311.5 241.9Q310.3 242.4 308.7 242.4ZM310.4 238.2L310.4 238.2Q311.7 238.2 312.8 237.7Q313.8 237.1 314.4 236.2Q314.9 235.3 314.9 234.2L314.9 234.2L314.9 231.8Q314.7 232.0 314.2 232.2Q313.7 232.3 313.1 232.4Q312.5 232.6 311.8 232.7Q311.2 232.7 310.7 232.8L310.7 232.8Q309.7 233.0 308.9 233.3Q308.1 233.7 307.6 234.2Q307.2 234.8 307.2 235.7L307.2 235.7Q307.2 236.9 308.1 237.5Q309.0 238.2 310.4 238.2ZM343.5 226.4L343.5 226.4L337.9 226.7Q337.8 226.0 337.3 225.4Q336.9 224.8 336.1 224.5Q335.3 224.1 334.3 224.1L334.3 224.1Q332.9 224.1 331.9 224.7Q331.0 225.3 331.0 226.3L331.0 226.3Q331.0 227.1 331.6 227.6Q332.2 228.2 333.7 228.5L333.7 228.5L337.7 229.3Q340.9 229.9 342.4 231.4Q344.0 232.8 344.0 235.2L344.0 235.2Q344.0 237.3 342.7 239.0Q341.5 240.6 339.3 241.5Q337.1 242.4 334.3 242.4L334.3 242.4Q329.9 242.4 327.4 240.6Q324.8 238.8 324.4 235.6L324.4 235.6L330.3 235.3Q330.6 236.6 331.6 237.3Q332.7 238.0 334.3 238.0L334.3 238.0Q335.9 238.0 336.8 237.4Q337.8 236.8 337.8 235.8L337.8 235.8Q337.8 235.0 337.1 234.4Q336.5 233.9 335.0 233.6L335.0 233.6L331.3 232.9Q328.1 232.2 326.5 230.7Q325.0 229.1 325.0 226.6L325.0 226.6Q325.0 224.5 326.1 223.0Q327.2 221.5 329.3 220.7Q331.4 219.8 334.2 219.8L334.2 219.8Q338.3 219.8 340.7 221.6Q343.1 223.3 343.5 226.4ZM365.6 226.4L365.6 226.4L360.1 226.7Q360.0 226.0 359.5 225.4Q359.0 224.8 358.3 224.5Q357.5 224.1 356.5 224.1L356.5 224.1Q355.0 224.1 354.1 224.7Q353.1 225.3 353.1 226.3L353.1 226.3Q353.1 227.1 353.7 227.6Q354.4 228.2 355.9 228.5L355.9 228.5L359.8 229.3Q363.0 229.9 364.6 231.4Q366.1 232.8 366.1 235.2L366.1 235.2Q366.1 237.3 364.9 239.0Q363.6 240.6 361.4 241.5Q359.3 242.4 356.4 242.4L356.4 242.4Q352.1 242.4 349.5 240.6Q347.0 238.8 346.5 235.6L346.5 235.6L352.5 235.3Q352.7 236.6 353.8 237.3Q354.8 238.0 356.4 238.0L356.4 238.0Q358.0 238.0 359.0 237.4Q360.0 236.8 360.0 235.8L360.0 235.8Q360.0 235.0 359.3 234.4Q358.6 233.9 357.2 233.6L357.2 233.6L353.4 232.9Q350.2 232.2 348.7 230.7Q347.1 229.1 347.1 226.6L347.1 226.6Q347.1 224.5 348.2 223.0Q349.4 221.5 351.5 220.7Q353.6 219.8 356.4 219.8L356.4 219.8Q360.5 219.8 362.9 221.6Q365.2 223.3 365.6 226.4ZM375.7 242.0L369.6 242.0L369.6 220.1L375.7 220.1L375.7 242.0ZM372.7 217.3L372.7 217.3Q371.3 217.3 370.4 216.4Q369.4 215.5 369.4 214.3L369.4 214.3Q369.4 213.0 370.4 212.1Q371.3 211.2 372.7 211.2L372.7 211.2Q374.0 211.2 375.0 212.1Q375.9 213.0 375.9 214.3L375.9 214.3Q375.9 215.5 375.0 216.4Q374.0 217.3 372.7 217.3ZM398.4 226.4L398.4 226.4L392.8 226.7Q392.7 226.0 392.2 225.4Q391.7 224.8 391.0 224.5Q390.2 224.1 389.2 224.1L389.2 224.1Q387.8 224.1 386.8 224.7Q385.8 225.3 385.8 226.3L385.8 226.3Q385.8 227.1 386.4 227.6Q387.1 228.2 388.6 228.5L388.6 228.5L392.5 229.3Q395.7 229.9 397.3 231.4Q398.8 232.8 398.8 235.2L398.8 235.2Q398.8 237.3 397.6 239.0Q396.3 240.6 394.2 241.5Q392.0 242.4 389.1 242.4L389.1 242.4Q384.8 242.4 382.2 240.6Q379.7 238.8 379.2 235.6L379.2 235.6L385.2 235.3Q385.5 236.6 386.5 237.3Q387.5 238.0 389.1 238.0L389.1 238.0Q390.7 238.0 391.7 237.4Q392.7 236.8 392.7 235.8L392.7 235.8Q392.7 235.0 392.0 234.4Q391.3 233.9 389.9 233.6L389.9 233.6L386.1 232.9Q382.9 232.2 381.4 230.7Q379.8 229.1 379.8 226.6L379.8 226.6Q379.8 224.5 381.0 223.0Q382.1 221.5 384.2 220.7Q386.3 219.8 389.1 219.8L389.1 219.8Q393.2 219.8 395.6 221.6Q398.0 223.3 398.4 226.4ZM400.8 220.1L414.0 220.1L414.0 224.7L400.8 224.7L400.8 220.1ZM403.8 236.0L403.8 214.9L409.9 214.9L409.9 235.2Q409.9 236.1 410.1 236.5Q410.4 237.0 410.8 237.2Q411.3 237.4 411.9 237.4L411.9 237.4Q412.3 237.4 412.7 237.3Q413.2 237.2 413.4 237.2L413.4 237.2L414.4 241.7Q413.9 241.8 413.1 242.0Q412.3 242.2 411.1 242.2L411.1 242.2Q408.9 242.3 407.2 241.7Q405.6 241.0 404.7 239.6Q403.8 238.2 403.8 236.0L403.8 236.0ZM423.8 242.4L423.8 242.4Q421.7 242.4 420.1 241.6Q418.4 240.9 417.5 239.5Q416.5 238.0 416.5 235.9L416.5 235.9Q416.5 234.0 417.2 232.8Q417.9 231.6 419.0 230.8Q420.2 230.1 421.7 229.7Q423.1 229.3 424.7 229.1L424.7 229.1Q426.6 228.9 427.8 228.8Q429.0 228.6 429.5 228.2Q430.0 227.9 430.0 227.2L430.0 227.2L430.0 227.1Q430.0 225.7 429.2 225.0Q428.3 224.3 426.8 224.3L426.8 224.3Q425.2 224.3 424.2 225.0Q423.2 225.7 422.9 226.8L422.9 226.8L417.3 226.3Q417.7 224.3 419.0 222.9Q420.2 221.4 422.2 220.6Q424.2 219.8 426.8 219.8L426.8 219.8Q428.6 219.8 430.3 220.3Q432.0 220.7 433.3 221.6Q434.6 222.5 435.3 223.9Q436.1 225.3 436.1 227.2L436.1 227.2L436.1 242.0L430.3 242.0L430.3 238.9L430.2 238.9Q429.6 239.9 428.8 240.7Q427.9 241.5 426.6 241.9Q425.4 242.4 423.8 242.4ZM425.5 238.2L425.5 238.2Q426.9 238.2 427.9 237.7Q428.9 237.1 429.5 236.2Q430.1 235.3 430.1 234.2L430.1 234.2L430.1 231.8Q429.8 232.0 429.3 232.2Q428.8 232.3 428.2 232.4Q427.6 232.6 427.0 232.7Q426.4 232.7 425.9 232.8L425.9 232.8Q424.8 233.0 424.0 233.3Q423.2 233.7 422.8 234.2Q422.3 234.8 422.3 235.7L422.3 235.7Q422.3 236.9 423.2 237.5Q424.1 238.2 425.5 238.2ZM446.5 229.3L446.5 229.3L446.5 242.0L440.5 242.0L440.5 220.1L446.2 220.1L446.2 224.0L446.5 224.0Q447.2 222.1 448.9 221.0Q450.6 219.8 453.0 219.8L453.0 219.8Q455.3 219.8 457.0 220.8Q458.7 221.8 459.6 223.7Q460.6 225.5 460.6 228.1L460.6 228.1L460.6 242.0L454.5 242.0L454.5 229.1Q454.5 227.1 453.5 226.0Q452.5 224.9 450.6 224.9L450.6 224.9Q449.4 224.9 448.5 225.4Q447.6 225.9 447.0 226.9Q446.5 227.9 446.5 229.3ZM463.5 220.1L476.6 220.1L476.6 224.7L463.5 224.7L463.5 220.1ZM466.5 236.0L466.5 214.9L472.5 214.9L472.5 235.2Q472.5 236.1 472.8 236.5Q473.0 237.0 473.5 237.2Q473.9 237.4 474.6 237.4L474.6 237.4Q475.0 237.4 475.4 237.3Q475.8 237.2 476.1 237.2L476.1 237.2L477.0 241.7Q476.6 241.8 475.7 242.0Q474.9 242.2 473.7 242.2L473.7 242.2Q471.5 242.3 469.9 241.7Q468.3 241.0 467.4 239.6Q466.4 238.2 466.5 236.0L466.5 236.0ZM498.1 226.4L498.1 226.4L492.5 226.7Q492.4 226.0 491.9 225.4Q491.5 224.8 490.7 224.5Q489.9 224.1 488.9 224.1L488.9 224.1Q487.5 224.1 486.5 224.7Q485.6 225.3 485.6 226.3L485.6 226.3Q485.6 227.1 486.2 227.6Q486.8 228.2 488.3 228.5L488.3 228.5L492.3 229.3Q495.5 229.9 497.0 231.4Q498.6 232.8 498.6 235.2L498.6 235.2Q498.6 237.3 497.3 239.0Q496.1 240.6 493.9 241.5Q491.7 242.4 488.9 242.4L488.9 242.4Q484.5 242.4 482.0 240.6Q479.4 238.8 479.0 235.6L479.0 235.6L484.9 235.3Q485.2 236.6 486.2 237.3Q487.3 238.0 488.9 238.0L488.9 238.0Q490.5 238.0 491.4 237.4Q492.4 236.8 492.4 235.8L492.4 235.8Q492.4 235.0 491.7 234.4Q491.1 233.9 489.6 233.6L489.6 233.6L485.9 232.9Q482.7 232.2 481.1 230.7Q479.6 229.1 479.6 226.6L479.6 226.6Q479.6 224.5 480.7 223.0Q481.8 221.5 483.9 220.7Q486.0 219.8 488.8 219.8L488.8 219.8Q492.9 219.8 495.3 221.6Q497.7 223.3 498.1 226.4Z "/></svg>